
<svg width="200px" height="47px" viewBox="0 0 200 47" version="1.1" xmlns="http://www.w3.org/2000/svg" xmlns:xlink="http://www.w3.org/1999/xlink">

    <g id="sign-in-default-state" stroke="none" stroke-width="1" fill="none" fill-rule="evenodd" transform="translate(-119.000000, -85.000000)">
        <g id="Unbounce-primary-logo-dark-background-white" transform="translate(119.000000, 85.000000)" fill="#0098DB">
            <path d="M23.0261312,0 C10.3085168,0 0,10.3682481 0,23.1578947 C0,35.9475414 10.3085168,46.3157895 23.0261312,46.3157895 C35.7437457,46.3157895 46.0526316,35.9475414 46.0526316,23.1578947 C46.0526316,10.3682481 35.7437457,0 23.0261312,0 Z M16.6599421,39.4458182 C16.9146192,37.7969063 17.157116,36.282001 17.3841108,34.8836554 C12.3130839,32.3271367 9.09935423,27.1806904 9.9187501,21.2328031 C11.0374838,13.1545454 17.2220772,9.01184917 24.9996942,9.71677571 C25.5895116,8.87710018 26.2369081,8.0712047 26.9736262,7.29166508 C28.2857669,5.81647916 30.237184,5.76970679 29.3594708,7.51810278 C27.5907568,10.8849715 26.8916866,13.4266419 25.3721133,17.5080886 C23.8577073,21.8490106 21.5172617,28.2208189 18.4009737,39.4083261 C18.1758244,40.4328638 16.5791098,40.2695317 16.6599421,39.4458182 Z M36.1456926,24.6108081 C35.1343662,32.3237958 27.9657596,36.7010963 20.8399683,35.9453141 C21.3570735,34.1868955 21.6021541,33.4366814 22.201568,32.0190329 C22.6540812,31.2008875 24.3474994,30.8667991 25.6622237,30.304417 C28.3330113,29.3392727 30.3840847,26.9416315 30.7716368,23.9159042 C31.0443997,21.7710566 30.4213635,19.7152993 29.2000208,18.1268945 C28.3459297,17.0366527 27.5409287,16.3759001 27.8159061,15.3528471 C28.2204367,13.9715772 28.5308475,12.9459258 29.2849131,11.2101509 C33.9672807,13.7392001 36.8857326,18.9925547 36.1456926,24.6108081 Z" id="Fill-1"></path>
            <path d="M15.1515087,22.0472042 C14.8850531,24.0743066 15.4484801,26.0087872 16.577567,27.5348572 C17.3300435,28.5197832 17.9068677,29.0941106 18.1889533,29.5462795 C19.1193149,24.6096162 19.7906639,22.0559559 20.6856717,19.1908825 C21.0864715,17.9940936 21.7511219,16.3155989 22.2323049,15.1724138 C21.6584579,15.3605744 20.8445775,15.5698848 20.1799272,15.8247768 C17.5470038,16.7921995 15.5348177,19.1230572 15.1515087,22.0472042" id="Fill-2"></path>
            <path d="M199.296733,23.5275764 C199.18123,18.1535609 195.88264,14.3738657 190.303612,14.3738657 C185.089844,14.3738657 181.034483,18.1441098 181.034483,23.1582582 C181.034483,28.2120284 184.882838,31.9419238 190.841377,31.9419238 C194.06759,31.9419238 196.06002,31.0815142 197.644063,29.686393 C198.083575,29.2185658 197.859319,28.9179495 197.566061,28.6086092 C197.376681,28.4254041 196.454155,27.4555805 196.229899,27.2382062 C195.910765,26.9041477 195.548881,26.8452604 195.126244,27.2382062 C194.113341,28.0128292 192.766304,28.5326373 190.800125,28.5326373 C187.846169,28.5326373 186.065996,27.1880429 185.426603,25.0433803 C185.376352,24.8743518 185.459979,24.5221182 185.750237,24.5221182 C187.975923,24.5221182 197.666939,24.5221182 198.44021,24.5221182 C199.117853,24.5221182 199.290358,24.1629781 199.296733,23.5275764 Z M194.612105,21.7144278 L185.745737,21.7144278 C185.745737,21.7144278 185.211722,21.7947617 185.447979,21.1077427 C186.107997,18.9572641 187.87842,17.743167 190.345238,17.743167 C193.005186,17.743167 194.443725,19.1640968 194.949239,21.1673571 C195.062117,21.7144278 194.612105,21.7144278 194.612105,21.7144278 Z" id="Fill-3"></path>
            <path d="M179.877319,28.3796029 C179.657912,28.1760417 178.433288,27.1858619 178.271038,27.0255574 C177.955017,26.782011 177.543122,26.606076 177.117583,27.0662697 C176.156247,27.8786969 175.247275,28.3719693 173.475055,28.3719693 C170.423267,28.3719693 168.592047,26.1662384 168.592047,23.1582582 C168.592047,20.1499146 170.423267,17.9434566 173.475055,17.9434566 C174.980299,17.9434566 176.029766,18.4145554 176.911819,19.283689 C177.419959,19.702807 177.73561,19.71662 178.106206,19.3916491 C178.30865,19.1920865 179.654962,18.2175373 179.822744,18.0517803 C180.166052,17.6999102 180.248283,17.5239752 179.878057,16.982357 C178.353638,15.4531035 176.480011,14.3738657 173.475055,14.3738657 C168.266808,14.3738657 164.360254,18.1441098 164.360254,23.1582582 C164.360254,28.2120284 168.266808,31.9419238 173.475055,31.9419238 C176.560768,31.9419238 178.229737,30.9917292 179.918619,29.4893749 C180.523003,28.8935949 180.138395,28.5955231 179.877319,28.3796029" id="Fill-4"></path>
            <path d="M156.507722,14.3852081 C154.145106,14.3347759 152.478909,14.3900288 150.842724,15.9018829 L150.841639,15.5696236 C150.841639,15.032298 150.579488,14.7534375 149.939839,14.7534375 C149.710954,14.7534375 146.892015,14.7534375 146.892015,14.7534375 C146.892015,14.7534375 146.892738,30.2876729 146.892738,30.7994116 C146.892738,31.6007647 147.090888,31.939328 147.92254,31.939328 L149.900426,31.939328 C150.748711,31.939328 150.921912,31.6348806 150.921912,30.7482377 C150.921912,30.2891562 150.921912,22.6093678 150.921912,22.6093678 C150.921912,19.8274377 152.637646,18.1906156 155.271091,18.1906156 C157.625028,18.1906156 158.741973,19.6227422 158.741973,22.0776046 C158.741973,22.0776046 158.741973,28.1936234 158.741973,30.7482377 C158.741973,31.8225181 159.00304,31.9419238 160.050199,31.9419238 C160.393345,31.9419238 160.967547,31.9415529 161.500528,31.9404405 C162.548409,31.9404405 162.772232,31.7984145 162.772232,30.7230216 C162.772232,29.8478743 162.772232,21.750166 162.772232,21.750166 C162.772232,17.0859275 160.217975,14.4641939 156.507722,14.3852081" id="Fill-5"></path>
            <path d="M141.191587,16.3161444 C141.191587,19.3633776 141.191587,24.5692218 141.191587,24.5692218 C141.191587,27.5105608 140.091895,29.1041564 137.363699,29.1041564 C134.635873,29.1041564 133.53618,27.5105608 133.53618,24.5692218 C133.53618,24.5692218 133.53618,16.7797089 133.53618,16.3031854 C133.53618,15.4345573 133.295946,15.1724138 132.471177,15.1724138 C131.928342,15.1724138 131.087336,15.1724138 130.561477,15.1724138 C129.654415,15.1724138 129.423775,15.4619565 129.423775,16.3161444 C129.423775,16.7075084 129.423775,24.6917776 129.423775,24.6917776 C129.423775,29.7173056 132.192563,32.7404719 137.201329,32.7404719 C142.29091,32.7404719 145.303993,29.7173056 145.303993,24.6917776 L145.303993,15.1724138 L142.475422,15.1827811 C141.499722,15.1827811 141.191587,15.4071581 141.191587,16.3161444" id="Fill-6"></path>
            <path d="M99.8452971,14.6853307 C97.8450227,14.6853307 95.9988677,15.3494719 94.5101389,16.4712225 C94.5137824,11.3458494 94.5170615,6.84522543 94.5170615,6.68581682 C94.5170615,5.90460422 94.3356159,5.59867224 93.4804894,5.59867224 C93.2061349,5.59867224 92.0169007,5.58983666 91.4638193,5.58983666 C90.6633452,5.58983666 90.5172414,5.80630839 90.5172414,6.6287537 C90.5172414,7.085995 90.5172414,32.1628458 90.5172414,32.1628458 C90.5172414,32.1628458 93.8149616,32.1628458 93.8816374,32.1628458 C94.3337941,32.1628458 94.4992084,31.8889428 94.4992084,31.5027543 C94.4992084,31.4780883 94.4995728,31.2807603 94.4995728,30.9472171 C95.9901234,32.0733855 97.8406505,32.7404719 99.8452971,32.7404719 C104.779672,32.7404719 108.779492,28.6985618 108.779492,23.7127172 C108.779492,18.7268726 104.779672,14.6853307 99.8452971,14.6853307 Z M99.8004822,29.0390998 C96.889336,29.0390998 94.529085,26.6542293 94.529085,23.7130854 C94.529085,20.770837 96.889336,18.3863346 99.8004822,18.3863346 C102.711993,18.3863346 105.071879,20.770837 105.071879,23.7130854 C105.071879,26.6542293 102.711993,29.0390998 99.8004822,29.0390998 Z" id="Fill-7"></path>
            <path d="M82.664928,14.3852081 C80.3022588,14.3347759 78.6360238,14.3900288 76.9994397,15.9018829 L76.9983549,15.5696236 C76.9983549,15.032298 76.7365593,14.7534375 76.0965341,14.7534375 C75.8680053,14.7534375 73.0490018,14.7534375 73.0490018,14.7534375 C73.0490018,14.7534375 73.0490018,30.2876729 73.0490018,30.7994116 C73.0490018,31.6007647 73.2478797,31.939328 74.0791892,31.939328 L76.0578433,31.939328 C76.9054247,31.939328 77.0789908,31.6348806 77.0789908,30.7482377 C77.0789908,30.2891562 77.0789908,22.6093678 77.0789908,22.6093678 C77.0789908,19.8274377 78.7947645,18.1906156 81.4279076,18.1906156 C83.7822601,18.1906156 84.8992306,19.6227422 84.8992306,22.0776046 C84.8992306,22.0776046 84.8992306,28.1936234 84.8992306,30.7482377 C84.8992306,31.8225181 85.160303,31.9419238 86.2074854,31.9419238 C86.980578,31.9419238 88.9292196,31.939328 88.9292196,31.939328 L88.9292196,21.750166 C88.9292196,17.0859275 86.3749045,14.4641939 82.664928,14.3852081" id="Fill-8"></path>
            <path d="M67.3485745,16.2976078 C67.3485745,16.9107441 67.3485745,24.569394 67.3485745,24.569394 C67.17255,27.510671 66.2492515,29.104233 63.5210557,29.104233 C60.7928599,29.104233 59.8655021,27.510671 59.6931678,24.569394 C59.6931678,24.569394 59.6931678,16.6567516 59.6931678,16.3164906 C59.6931678,15.5819118 59.5514625,15.172784 58.8008673,15.172784 L56.5483437,15.172784 C55.7977485,15.172784 55.5910949,15.5067508 55.5910949,16.2787249 C55.5910949,16.6023247 55.5807623,24.6919472 55.5807623,24.6919472 C55.5807623,29.7173693 58.3495507,32.7404719 63.358316,32.7404719 C68.4478976,32.7404719 71.46098,29.7173693 71.46098,24.6919472 L71.46098,15.172784 C71.46098,15.172784 68.7268798,15.1724138 68.2973357,15.1724138 C67.6216524,15.1724138 67.3485745,15.5067508 67.3485745,16.2976078" id="Fill-9"></path>
            <path d="M125.96041,30.2729796 C124.202508,31.9178514 122.053879,32.7404719 119.482389,32.7404719 C116.910534,32.7404719 114.76227,31.9178514 113.004368,30.2729796 C111.246465,28.5952619 110.367514,26.4894422 110.367514,23.9562583 C110.367514,21.4230745 111.246465,19.3176237 113.004368,17.6723828 C114.76227,15.9946652 116.910534,15.1724138 119.482389,15.1724138 C122.053879,15.1724138 124.202508,15.9946652 125.96041,17.6723828 C127.750813,19.3504695 128.629764,21.4230745 128.629764,23.9562583 C128.629764,26.4894422 127.750813,28.5952619 125.96041,30.2729796 Z M115.966584,27.7397957 C116.910534,28.6937992 118.082713,29.1872239 119.482389,29.1872239 C120.882065,29.1872239 122.053879,28.6937992 122.997829,27.7397957 C123.942145,26.7525774 124.43037,25.5025928 124.43037,23.9562583 C124.43037,22.4431386 123.942145,21.192785 122.96533,20.2059357 C122.021379,19.2187174 120.849566,18.7252927 119.482389,18.7252927 C118.115212,18.7252927 116.943034,19.2187174 115.999083,20.2059357 C115.055133,21.192785 114.566907,22.4431386 114.566907,23.9562583 C114.566907,25.5025928 115.022633,26.7525774 115.966584,27.7397957 Z" id="Fill-10"></path>
        </g>
    </g>
</svg>